# Blender v3.1.2 OBJ File: 'flash.blend'
# www.blender.org
mtllib cs_weapons_flash.mtl
o Cylinder
v -0.075000 0.000000 -0.025000
v 0.075000 -0.000000 -0.025000
v -0.075000 -0.017678 -0.017678
v 0.075000 -0.017678 -0.017678
v -0.075000 -0.025000 0.000000
v 0.075000 -0.025000 0.000000
v -0.075000 -0.017678 0.017678
v 0.075000 -0.017678 0.017678
v -0.075000 0.000000 0.025000
v 0.075000 -0.000000 0.025000
v -0.075000 0.017678 0.017678
v 0.075000 0.017678 0.017678
v -0.075000 0.025000 -0.000000
v 0.075000 0.025000 -0.000000
v -0.075000 0.017678 -0.017678
v 0.075000 0.017678 -0.017678
v 0.075000 -0.021213 -0.021213
v 0.075000 -0.000000 -0.030000
v 0.075000 -0.030000 0.000000
v 0.075000 -0.021213 0.021213
v 0.075000 -0.000000 0.030000
v 0.075000 0.021213 0.021213
v 0.075000 0.030000 -0.000000
v 0.075000 0.021213 -0.021213
v 0.095000 -0.021213 -0.021213
v 0.095000 -0.000000 -0.030000
v 0.095000 -0.030000 0.000000
v 0.095000 -0.021213 0.021213
v 0.095000 -0.000000 0.030000
v 0.095000 0.021213 0.021213
v 0.095000 0.030000 -0.000000
v 0.095000 0.021213 -0.021213
v -0.075000 0.000000 -0.030000
v -0.075000 -0.021213 -0.021213
v -0.075000 -0.030000 0.000000
v -0.075000 -0.021213 0.021213
v -0.075000 0.000000 0.030000
v -0.075000 0.021213 0.021213
v -0.075000 0.030000 -0.000000
v -0.075000 0.021213 -0.021213
v -0.095000 0.000000 -0.030000
v -0.095000 -0.021213 -0.021213
v -0.095000 -0.030000 0.000000
v -0.095000 -0.021213 0.021213
v -0.095000 0.000000 0.030000
v -0.095000 0.021213 0.021213
v -0.095000 0.030000 -0.000000
v -0.095000 0.021213 -0.021213
vt 0.296875 0.921875
vt -0.000000 0.921875
vt -0.000000 0.875000
vt 0.296875 0.875000
vt -0.000000 0.843750
vt 0.296875 0.843750
vt -0.000000 0.796875
vt 0.296875 0.796875
vt -0.000000 0.765625
vt 0.296875 0.765625
vt -0.000000 0.718750
vt 0.296875 0.718750
vt -0.000000 0.687500
vt 0.296875 0.687500
vt 0.171875 0.265625
vt 0.140625 0.281250
vt 0.140625 0.265625
vt 0.171875 0.250000
vt 0.296875 1.000000
vt -0.000000 1.000000
vt -0.000000 0.953125
vt 0.296875 0.953125
vt 0.093750 0.343750
vt 0.093750 0.375000
vt 0.078125 0.375000
vt 0.093750 0.328125
vt 0.109375 0.296875
vt 0.078125 0.281250
vt 0.109375 0.234375
vt 0.109375 0.312500
vt 0.093750 0.343750
vt 0.093750 0.328125
vt 0.140625 0.468750
vt 0.171875 0.484375
vt 0.171875 0.500000
vt 0.140625 0.484375
vt 0.093750 0.375000
vt 0.093750 0.406250
vt 0.093750 0.406250
vt 0.078125 0.375000
vt 0.109375 0.437500
vt 0.109375 0.453125
vt 0.109375 0.640625
vt 0.078125 0.671875
vt 0.031250 0.671875
vt 0.000000 0.640625
vt 0.000000 0.593750
vt 0.031250 0.562500
vt 0.078125 0.562500
vt 0.109375 0.593750
vt 0.046875 0.375000
vt 0.046875 0.328125
vt 0.078125 0.468750
vt 0.046875 0.421875
vt 0.109375 0.515625
vt 0.156250 0.218750
vt 0.156250 0.531250
vt 0.140625 0.484375
vt 0.171875 0.500000
vt 0.156250 0.531250
vt 0.109375 0.515625
vt 0.109375 0.437500
vt 0.140625 0.468750
vt 0.109375 0.453125
vt 0.140625 0.281250
vt 0.109375 0.312500
vt 0.109375 0.296875
vt 0.140625 0.265625
vt 0.093750 0.406250
vt 0.093750 0.406250
vt 0.171875 0.484375
vt 0.171875 0.265625
vt 0.171875 0.250000
vt 0.265625 0.562500
vt 0.296875 0.593750
vt 0.296875 0.640625
vt 0.265625 0.671875
vt 0.218750 0.671875
vt 0.187500 0.640625
vt 0.187500 0.593750
vt 0.218750 0.562500
vt 0.078125 0.468750
vt 0.046875 0.421875
vt 0.046875 0.375000
vt 0.046875 0.328125
vt 0.109375 0.234375
vt 0.156250 0.218750
vt 0.078125 0.281250
vn -0.0000 -0.3827 -0.9239
vn -0.0000 -0.9239 -0.3827
vn -0.0000 -0.9239 0.3827
vn -0.0000 -0.3827 0.9239
vn 0.0000 0.3827 0.9239
vn 0.0000 0.9239 0.3827
vn -1.0000 0.0000 0.0000
vn 0.0000 0.9239 -0.3827
vn 0.0000 0.3827 -0.9239
vn 1.0000 0.0000 0.0000
usemtl TT_checker_64x64_UV_GRID
s off
f 1/1/1 2/2/1 4/3/1 3/4/1
f 3/4/2 4/3/2 6/5/2 5/6/2
f 5/6/3 6/5/3 8/7/3 7/8/3
f 7/8/4 8/7/4 10/9/4 9/10/4
f 9/10/5 10/9/5 12/11/5 11/12/5
f 11/12/6 12/11/6 14/13/6 13/14/6
f 14/15/7 12/16/7 22/17/7 23/18/7
f 13/19/8 14/20/8 16/21/8 15/22/8
f 15/22/9 16/21/9 2/2/9 1/1/9
f 3/23/10 5/24/10 35/25/10 34/26/10
f 22/17/5 21/27/5 29/28/5 30/29/5
f 10/30/7 8/31/7 20/32/7 21/27/7
f 16/33/7 14/34/7 23/35/7 24/36/7
f 6/37/7 4/38/7 17/39/7 19/40/7
f 12/16/7 10/30/7 21/27/7 22/17/7
f 2/41/7 16/33/7 24/36/7 18/42/7
f 4/38/7 2/41/7 18/42/7 17/39/7
f 8/31/7 6/37/7 19/40/7 20/32/7
f 25/43/10 26/44/10 32/45/10 31/46/10 30/47/10 29/48/10 28/49/10 27/50/10
f 20/32/3 19/40/3 27/51/3 28/52/3
f 17/39/1 18/42/1 26/53/1 25/54/1
f 18/42/9 24/36/9 32/55/9 26/53/9
f 23/18/6 22/17/6 30/29/6 31/56/6
f 21/27/4 20/32/4 28/52/4 29/28/4
f 19/40/2 17/39/2 25/54/2 27/51/2
f 24/36/8 23/35/8 31/57/8 32/55/8
f 38/58/6 39/59/6 47/60/6 46/61/6
f 9/62/10 11/63/10 38/58/10 37/64/10
f 15/65/10 1/66/10 33/67/10 40/68/10
f 1/66/10 3/23/10 34/26/10 33/67/10
f 5/24/10 7/69/10 36/70/10 35/25/10
f 11/63/10 13/71/10 39/59/10 38/58/10
f 7/69/10 9/62/10 37/64/10 36/70/10
f 13/72/10 15/65/10 40/68/10 39/73/10
f 41/74/7 42/75/7 43/76/7 44/77/7 45/78/7 46/79/7 47/80/7 48/81/7
f 36/70/4 37/64/4 45/82/4 44/83/4
f 34/26/2 35/25/2 43/84/2 42/85/2
f 39/73/8 40/68/8 48/86/8 47/87/8
f 37/64/5 38/58/5 46/61/5 45/82/5
f 35/25/3 36/70/3 44/83/3 43/84/3
f 33/67/1 34/26/1 42/85/1 41/88/1
f 40/68/9 33/67/9 41/88/9 48/86/9
