<svg xmlns="http://www.w3.org/2000/svg" width="64" height="64" version="1.1" viewBox="0 0 64 64"><desc>flash.blend, (Blender 3.1.2)</desc><polygon fill="#CCC" fill-opacity=".25" stroke="#000" stroke-width="1" points="19 5 0 5 0 8 19 8"/><polygon fill="#CCC" fill-opacity=".25" stroke="#000" stroke-width="1" points="19 8 0 8 0 10 19 10"/><polygon fill="#CCC" fill-opacity=".25" stroke="#000" stroke-width="1" points="19 10 0 10 0 13 19 13"/><polygon fill="#CCC" fill-opacity=".25" stroke="#000" stroke-width="1" points="19 13 0 13 0 15 19 15"/><polygon fill="#CCC" fill-opacity=".25" stroke="#000" stroke-width="1" points="19 15 0 15 0 18 19 18"/><polygon fill="#CCC" fill-opacity=".25" stroke="#000" stroke-width="1" points="19 18 0 18 0 20 19 20"/><polygon fill="#CCC" fill-opacity=".25" stroke="#000" stroke-width="1" points="11 47 9 46 9 47 11 48"/><polygon fill="#CCC" fill-opacity=".25" stroke="#000" stroke-width="1" points="19 0 0 0 0 3 19 3"/><polygon fill="#CCC" fill-opacity=".25" stroke="#000" stroke-width="1" points="19 3 0 3 0 5 19 5"/><polygon fill="#CCC" fill-opacity=".25" stroke="#000" stroke-width="1" points="6 42 6 40 5 40 6 43"/><polygon fill="#CCC" fill-opacity=".25" stroke="#000" stroke-width="1" points="9 47 7 45 5 46 7 49"/><polygon fill="#CCC" fill-opacity=".25" stroke="#000" stroke-width="1" points="7 44 6 42 6 43 7 45"/><polygon fill="#CCC" fill-opacity=".25" stroke="#000" stroke-width="1" points="9 34 11 33 11 32 9 33"/><polygon fill="#CCC" fill-opacity=".25" stroke="#000" stroke-width="1" points="6 40 6 38 6 38 5 40"/><polygon fill="#CCC" fill-opacity=".25" stroke="#000" stroke-width="1" points="9 46 7 44 7 45 9 47"/><polygon fill="#CCC" fill-opacity=".25" stroke="#000" stroke-width="1" points="7 36 9 34 9 33 7 35"/><polygon fill="#CCC" fill-opacity=".25" stroke="#000" stroke-width="1" points="6 38 7 36 7 35 6 38"/><polygon fill="#CCC" fill-opacity=".25" stroke="#000" stroke-width="1" points="6 42 6 40 5 40 6 43"/><polygon fill="#CCC" fill-opacity=".25" stroke="#000" stroke-width="1" points="7 23 5 21 2 21 0 23 0 26 2 28 5 28 7 26"/><polygon fill="#CCC" fill-opacity=".25" stroke="#000" stroke-width="1" points="6 43 5 40 3 40 3 43"/><polygon fill="#CCC" fill-opacity=".25" stroke="#000" stroke-width="1" points="6 38 7 35 5 34 3 37"/><polygon fill="#CCC" fill-opacity=".25" stroke="#000" stroke-width="1" points="7 35 9 33 7 31 5 34"/><polygon fill="#CCC" fill-opacity=".25" stroke="#000" stroke-width="1" points="11 48 9 47 7 49 10 50"/><polygon fill="#CCC" fill-opacity=".25" stroke="#000" stroke-width="1" points="7 45 6 43 3 43 5 46"/><polygon fill="#CCC" fill-opacity=".25" stroke="#000" stroke-width="1" points="5 40 6 38 3 37 3 40"/><polygon fill="#CCC" fill-opacity=".25" stroke="#000" stroke-width="1" points="9 33 11 32 10 30 7 31"/><polygon fill="#CCC" fill-opacity=".25" stroke="#000" stroke-width="1" points="9 33 11 32 10 30 7 31"/><polygon fill="#CCC" fill-opacity=".25" stroke="#000" stroke-width="1" points="7 36 9 34 9 33 7 35"/><polygon fill="#CCC" fill-opacity=".25" stroke="#000" stroke-width="1" points="9 46 7 44 7 45 9 47"/><polygon fill="#CCC" fill-opacity=".25" stroke="#000" stroke-width="1" points="7 44 6 42 6 43 7 45"/><polygon fill="#CCC" fill-opacity=".25" stroke="#000" stroke-width="1" points="6 40 6 38 6 38 5 40"/><polygon fill="#CCC" fill-opacity=".25" stroke="#000" stroke-width="1" points="9 34 11 33 11 32 9 33"/><polygon fill="#CCC" fill-opacity=".25" stroke="#000" stroke-width="1" points="6 38 7 36 7 35 6 38"/><polygon fill="#CCC" fill-opacity=".25" stroke="#000" stroke-width="1" points="11 47 9 46 9 47 11 48"/><polygon fill="#CCC" fill-opacity=".25" stroke="#000" stroke-width="1" points="17 28 19 26 19 23 17 21 14 21 12 23 12 26 14 28"/><polygon fill="#CCC" fill-opacity=".25" stroke="#000" stroke-width="1" points="6 38 7 35 5 34 3 37"/><polygon fill="#CCC" fill-opacity=".25" stroke="#000" stroke-width="1" points="6 43 5 40 3 40 3 43"/><polygon fill="#CCC" fill-opacity=".25" stroke="#000" stroke-width="1" points="11 48 9 47 7 49 10 50"/><polygon fill="#CCC" fill-opacity=".25" stroke="#000" stroke-width="1" points="7 35 9 33 7 31 5 34"/><polygon fill="#CCC" fill-opacity=".25" stroke="#000" stroke-width="1" points="5 40 6 38 3 37 3 40"/><polygon fill="#CCC" fill-opacity=".25" stroke="#000" stroke-width="1" points="7 45 6 43 3 43 5 46"/><polygon fill="#CCC" fill-opacity=".25" stroke="#000" stroke-width="1" points="9 47 7 45 5 46 7 49"/></svg>