<?xml version="1.0" standalone="no"?>
<!DOCTYPE svg PUBLIC "-//W3C//DTD SVG 1.1//EN" 
  "http://www.w3.org/Graphics/SVG/1.1/DTD/svg11.dtd">
<svg width="64" height="64" viewBox="0 0 64 64"
     xmlns="http://www.w3.org/2000/svg" version="1.1">
<desc>flash.blend, (Blender 3.1.2)</desc>
<polygon stroke="black" stroke-width="1" fill="rgb(204, 204, 204)" fill-opacity="0.25" points="19.000,5.000 -0.000,5.000 -0.000,8.000 19.000,8.000 " />
<polygon stroke="black" stroke-width="1" fill="rgb(204, 204, 204)" fill-opacity="0.25" points="19.000,8.000 -0.000,8.000 -0.000,10.000 19.000,10.000 " />
<polygon stroke="black" stroke-width="1" fill="rgb(204, 204, 204)" fill-opacity="0.25" points="19.000,10.000 -0.000,10.000 -0.000,13.000 19.000,13.000 " />
<polygon stroke="black" stroke-width="1" fill="rgb(204, 204, 204)" fill-opacity="0.25" points="19.000,13.000 -0.000,13.000 -0.000,15.000 19.000,15.000 " />
<polygon stroke="black" stroke-width="1" fill="rgb(204, 204, 204)" fill-opacity="0.25" points="19.000,15.000 -0.000,15.000 -0.000,18.000 19.000,18.000 " />
<polygon stroke="black" stroke-width="1" fill="rgb(204, 204, 204)" fill-opacity="0.25" points="19.000,18.000 -0.000,18.000 -0.000,20.000 19.000,20.000 " />
<polygon stroke="black" stroke-width="1" fill="rgb(204, 204, 204)" fill-opacity="0.25" points="11.000,47.000 9.000,46.000 9.000,47.000 11.000,48.000 " />
<polygon stroke="black" stroke-width="1" fill="rgb(204, 204, 204)" fill-opacity="0.25" points="19.000,0.000 -0.000,0.000 -0.000,3.000 19.000,3.000 " />
<polygon stroke="black" stroke-width="1" fill="rgb(204, 204, 204)" fill-opacity="0.25" points="19.000,3.000 -0.000,3.000 -0.000,5.000 19.000,5.000 " />
<polygon stroke="black" stroke-width="1" fill="rgb(204, 204, 204)" fill-opacity="0.25" points="6.000,42.000 6.000,40.000 5.000,40.000 6.000,43.000 " />
<polygon stroke="black" stroke-width="1" fill="rgb(204, 204, 204)" fill-opacity="0.25" points="9.000,47.000 7.000,45.000 5.000,46.000 7.000,49.000 " />
<polygon stroke="black" stroke-width="1" fill="rgb(204, 204, 204)" fill-opacity="0.25" points="7.000,44.000 6.000,42.000 6.000,43.000 7.000,45.000 " />
<polygon stroke="black" stroke-width="1" fill="rgb(204, 204, 204)" fill-opacity="0.25" points="9.000,34.000 11.000,33.000 11.000,32.000 9.000,33.000 " />
<polygon stroke="black" stroke-width="1" fill="rgb(204, 204, 204)" fill-opacity="0.25" points="6.000,40.000 6.000,38.000 6.000,38.000 5.000,40.000 " />
<polygon stroke="black" stroke-width="1" fill="rgb(204, 204, 204)" fill-opacity="0.25" points="9.000,46.000 7.000,44.000 7.000,45.000 9.000,47.000 " />
<polygon stroke="black" stroke-width="1" fill="rgb(204, 204, 204)" fill-opacity="0.25" points="7.000,36.000 9.000,34.000 9.000,33.000 7.000,35.000 " />
<polygon stroke="black" stroke-width="1" fill="rgb(204, 204, 204)" fill-opacity="0.25" points="6.000,38.000 7.000,36.000 7.000,35.000 6.000,38.000 " />
<polygon stroke="black" stroke-width="1" fill="rgb(204, 204, 204)" fill-opacity="0.25" points="6.000,42.000 6.000,40.000 5.000,40.000 6.000,43.000 " />
<polygon stroke="black" stroke-width="1" fill="rgb(204, 204, 204)" fill-opacity="0.25" points="7.000,23.000 5.000,21.000 2.000,21.000 0.000,23.000 0.000,26.000 2.000,28.000 5.000,28.000 7.000,26.000 " />
<polygon stroke="black" stroke-width="1" fill="rgb(204, 204, 204)" fill-opacity="0.25" points="6.000,43.000 5.000,40.000 3.000,40.000 3.000,43.000 " />
<polygon stroke="black" stroke-width="1" fill="rgb(204, 204, 204)" fill-opacity="0.25" points="6.000,38.000 7.000,35.000 5.000,34.000 3.000,37.000 " />
<polygon stroke="black" stroke-width="1" fill="rgb(204, 204, 204)" fill-opacity="0.25" points="7.000,35.000 9.000,33.000 7.000,31.000 5.000,34.000 " />
<polygon stroke="black" stroke-width="1" fill="rgb(204, 204, 204)" fill-opacity="0.25" points="11.000,48.000 9.000,47.000 7.000,49.000 10.000,50.000 " />
<polygon stroke="black" stroke-width="1" fill="rgb(204, 204, 204)" fill-opacity="0.25" points="7.000,45.000 6.000,43.000 3.000,43.000 5.000,46.000 " />
<polygon stroke="black" stroke-width="1" fill="rgb(204, 204, 204)" fill-opacity="0.25" points="5.000,40.000 6.000,38.000 3.000,37.000 3.000,40.000 " />
<polygon stroke="black" stroke-width="1" fill="rgb(204, 204, 204)" fill-opacity="0.25" points="9.000,33.000 11.000,32.000 10.000,30.000 7.000,31.000 " />
<polygon stroke="black" stroke-width="1" fill="rgb(204, 204, 204)" fill-opacity="0.25" points="9.000,33.000 11.000,32.000 10.000,30.000 7.000,31.000 " />
<polygon stroke="black" stroke-width="1" fill="rgb(204, 204, 204)" fill-opacity="0.25" points="7.000,36.000 9.000,34.000 9.000,33.000 7.000,35.000 " />
<polygon stroke="black" stroke-width="1" fill="rgb(204, 204, 204)" fill-opacity="0.25" points="9.000,46.000 7.000,44.000 7.000,45.000 9.000,47.000 " />
<polygon stroke="black" stroke-width="1" fill="rgb(204, 204, 204)" fill-opacity="0.25" points="7.000,44.000 6.000,42.000 6.000,43.000 7.000,45.000 " />
<polygon stroke="black" stroke-width="1" fill="rgb(204, 204, 204)" fill-opacity="0.25" points="6.000,40.000 6.000,38.000 6.000,38.000 5.000,40.000 " />
<polygon stroke="black" stroke-width="1" fill="rgb(204, 204, 204)" fill-opacity="0.25" points="9.000,34.000 11.000,33.000 11.000,32.000 9.000,33.000 " />
<polygon stroke="black" stroke-width="1" fill="rgb(204, 204, 204)" fill-opacity="0.25" points="6.000,38.000 7.000,36.000 7.000,35.000 6.000,38.000 " />
<polygon stroke="black" stroke-width="1" fill="rgb(204, 204, 204)" fill-opacity="0.25" points="11.000,47.000 9.000,46.000 9.000,47.000 11.000,48.000 " />
<polygon stroke="black" stroke-width="1" fill="rgb(204, 204, 204)" fill-opacity="0.25" points="17.000,28.000 19.000,26.000 19.000,23.000 17.000,21.000 14.000,21.000 12.000,23.000 12.000,26.000 14.000,28.000 " />
<polygon stroke="black" stroke-width="1" fill="rgb(204, 204, 204)" fill-opacity="0.25" points="6.000,38.000 7.000,35.000 5.000,34.000 3.000,37.000 " />
<polygon stroke="black" stroke-width="1" fill="rgb(204, 204, 204)" fill-opacity="0.25" points="6.000,43.000 5.000,40.000 3.000,40.000 3.000,43.000 " />
<polygon stroke="black" stroke-width="1" fill="rgb(204, 204, 204)" fill-opacity="0.25" points="11.000,48.000 9.000,47.000 7.000,49.000 10.000,50.000 " />
<polygon stroke="black" stroke-width="1" fill="rgb(204, 204, 204)" fill-opacity="0.25" points="7.000,35.000 9.000,33.000 7.000,31.000 5.000,34.000 " />
<polygon stroke="black" stroke-width="1" fill="rgb(204, 204, 204)" fill-opacity="0.25" points="5.000,40.000 6.000,38.000 3.000,37.000 3.000,40.000 " />
<polygon stroke="black" stroke-width="1" fill="rgb(204, 204, 204)" fill-opacity="0.25" points="7.000,45.000 6.000,43.000 3.000,43.000 5.000,46.000 " />
<polygon stroke="black" stroke-width="1" fill="rgb(204, 204, 204)" fill-opacity="0.25" points="9.000,47.000 7.000,45.000 5.000,46.000 7.000,49.000 " />

</svg>
